<svg width="122" height="49" viewBox="0 0 122 49" fill="none" xmlns="http://www.w3.org/2000/svg">
<path d="M2.16 27.4C2.184 23.392 3.288 20.296 5.472 18.112C7.68 15.904 10.716 14.8 14.58 14.8H16.92V17.968H14.148C11.484 17.968 9.432 18.856 7.992 20.632C6.576 22.384 5.844 24.64 5.796 27.4C5.844 30.16 6.576 32.428 7.992 34.204C9.432 35.956 11.484 36.832 14.148 36.832H16.92V40H14.58C10.716 40 7.68 38.908 5.472 36.724C3.288 34.516 2.184 31.408 2.16 27.4ZM23.0541 24.988C24.7341 23.236 26.8341 22.36 29.3541 22.36C30.5781 22.36 31.7181 22.6 32.7741 23.08C33.8541 23.536 34.7901 24.172 35.5821 24.988C36.3981 25.804 37.0341 26.764 37.4901 27.868C37.9461 28.948 38.1741 30.112 38.1741 31.36C38.1741 32.608 37.9461 33.784 37.4901 34.888C37.0581 35.968 36.4461 36.916 35.6541 37.732C34.8621 38.548 33.9261 39.196 32.8461 39.676C31.7661 40.132 30.6021 40.36 29.3541 40.36C28.0821 40.36 26.9061 40.132 25.8261 39.676C24.7701 39.196 23.8461 38.548 23.0541 37.732C22.2621 36.916 21.6381 35.968 21.1821 34.888C20.7501 33.784 20.5341 32.608 20.5341 31.36C20.5341 28.816 21.3741 26.692 23.0541 24.988ZM29.3541 25.384C27.6741 25.384 26.3181 25.936 25.2861 27.04C24.2781 28.144 23.7741 29.584 23.7741 31.36C23.7741 33.136 24.2781 34.576 25.2861 35.68C26.3181 36.784 27.6741 37.336 29.3541 37.336C31.0581 37.336 32.4141 36.784 33.4221 35.68C34.4301 34.552 34.9341 33.112 34.9341 31.36C34.9341 29.608 34.4301 28.18 33.4221 27.076C32.4141 25.948 31.0581 25.384 29.3541 25.384ZM42.1369 22.72H48.3649C51.0289 22.72 52.9369 23.116 54.0889 23.908C55.1209 24.604 55.7689 25.444 56.0329 26.428C56.3209 27.388 56.4649 28.66 56.4649 30.244V40H53.2969V30.28C53.2969 29.848 53.2849 29.488 53.2609 29.2C53.2369 28.888 53.1529 28.504 53.0089 28.048C52.8649 27.568 52.6609 27.184 52.3969 26.896C52.1329 26.584 51.7489 26.32 51.2449 26.104C50.7409 25.864 50.1289 25.744 49.4089 25.744H45.3049V40H42.1369V22.72ZM59.0006 25.744L65.4446 19.3V22.72H70.3046V25.744H65.4446V33.16C65.4446 34 65.5766 34.696 65.8406 35.248C66.1286 35.8 66.5366 36.196 67.0646 36.436C67.5926 36.652 68.0846 36.796 68.5406 36.868C69.0206 36.94 69.6086 36.976 70.3046 36.976V40C67.5446 40 65.5046 39.472 64.1846 38.416C62.8646 37.36 62.2046 35.608 62.2046 33.16V25.744H59.0006ZM73.1981 40V30.172C73.1981 27.412 73.7141 25.504 74.7461 24.448C75.2501 23.92 75.8621 23.524 76.5821 23.26C77.3021 22.996 77.9261 22.84 78.4541 22.792C79.0061 22.744 79.7501 22.72 80.6861 22.72H83.8541V25.744H80.0381C79.5581 25.744 79.1861 25.756 78.9221 25.78C78.6581 25.804 78.3461 25.888 77.9861 26.032C77.6261 26.176 77.3141 26.404 77.0501 26.716C76.5941 27.292 76.3661 28.444 76.3661 30.172V40H73.1981ZM95.7954 29.848V33.088C94.8834 32.392 93.7674 32.044 92.4474 32.044C91.3194 32.044 90.4434 32.272 89.8194 32.728C89.1954 33.16 88.8834 33.784 88.8834 34.6C88.8834 36.184 90.0594 36.976 92.4114 36.976H97.1634V30.1C97.1634 27.196 95.7474 25.744 92.9154 25.744H87.1554V22.72H93.0954C95.4234 22.72 97.2114 23.296 98.4594 24.448C99.7074 25.6 100.331 27.256 100.331 29.416V40H92.3034C90.2634 40 88.6434 39.544 87.4434 38.632C86.2434 37.72 85.6434 36.388 85.6434 34.636C85.6434 32.884 86.2794 31.552 87.5514 30.64C88.8234 29.728 90.4194 29.272 92.3394 29.272C93.4194 29.272 94.5714 29.464 95.7954 29.848Z" fill="white"/>
<path d="M112.222 24.6787C111.038 24.6787 109.949 24.4731 108.953 24.0618C107.964 23.6433 107.106 23.066 106.377 22.33C105.655 21.5868 105.093 20.7245 104.688 19.7432C104.292 18.7618 104.093 17.7047 104.093 16.5719C104.093 15.4101 104.302 14.335 104.721 13.3464C105.139 12.3579 105.72 11.4992 106.464 10.7704C107.207 10.0416 108.069 9.47521 109.05 9.07113C110.032 8.65983 111.089 8.45418 112.222 8.45418C113.383 8.45418 114.459 8.67065 115.447 9.1036C116.436 9.52932 117.294 10.1174 118.023 10.8678C118.759 11.6183 119.329 12.4842 119.733 13.4655C120.145 14.4396 120.35 15.4751 120.35 16.5719C120.35 17.7047 120.141 18.7654 119.722 19.754C119.311 20.7353 118.734 21.594 117.991 22.33C117.255 23.066 116.392 23.6433 115.404 24.0618C114.422 24.4731 113.362 24.6787 112.222 24.6787ZM112.611 21.3992C111.211 21.3992 110.115 20.9843 109.321 20.1545C108.527 19.3247 108.13 18.1341 108.13 16.5827C108.13 15.623 108.318 14.7788 108.693 14.05C109.068 13.3212 109.599 12.7547 110.284 12.3507C110.97 11.9466 111.774 11.7445 112.698 11.7445C113.268 11.7445 113.773 11.7987 114.213 11.9069C114.661 12.0079 115.079 12.1558 115.469 12.3507L115.079 13.1733C114.726 13.0001 114.358 12.8702 113.975 12.7836C113.593 12.6898 113.171 12.6429 112.709 12.6429C111.634 12.6429 110.771 12.9965 110.122 13.7036C109.48 14.4035 109.159 15.3632 109.159 16.5827C109.159 17.8743 109.469 18.852 110.089 19.5159C110.717 20.1797 111.569 20.5116 112.644 20.5116C113.098 20.5116 113.517 20.472 113.899 20.3926C114.289 20.3132 114.689 20.1941 115.101 20.0354V20.9013C114.74 21.06 114.361 21.1827 113.964 21.2693C113.567 21.3559 113.116 21.3992 112.611 21.3992ZM112.222 23.8886C113.254 23.8886 114.21 23.701 115.09 23.3258C115.977 22.9433 116.75 22.4166 117.406 21.7455C118.07 21.0745 118.586 20.2988 118.954 19.4185C119.322 18.5309 119.506 17.5821 119.506 16.5719C119.506 15.5761 119.326 14.638 118.965 13.7577C118.604 12.8774 118.095 12.1017 117.439 11.4307C116.789 10.7524 116.021 10.222 115.133 9.8396C114.246 9.44995 113.275 9.25513 112.222 9.25513C111.183 9.25513 110.219 9.43913 109.332 9.80713C108.451 10.1751 107.679 10.6911 107.016 11.3549C106.359 12.0187 105.847 12.798 105.479 13.6928C105.111 14.5803 104.927 15.54 104.927 16.5719C104.927 17.5748 105.103 18.5165 105.457 19.3968C105.811 20.2771 106.308 21.0564 106.951 21.7347C107.6 22.4058 108.368 22.9325 109.256 23.3149C110.151 23.6974 111.139 23.8886 112.222 23.8886Z" fill="white"/>
</svg>
